<svg width="98" height="85" viewBox="0 0 98 85" fill="none" xmlns="http://www.w3.org/2000/svg">
<path d="M75.6304 85C69.9493 85 65.0966 82.1308 61.0725 76.3924C57.0483 70.4149 55.0362 63.3615 55.0362 55.2321C55.0362 46.8636 57.9952 37.8973 63.913 28.3333C69.8309 18.5302 78.1159 9.08579 88.7681 0L96.2246 3.94514L96.9348 7.53163C91.4903 12.7918 87.1111 18.6498 83.7971 25.1055C80.4831 31.3221 78.8261 37.18 78.8261 42.6793C78.8261 47.9395 80.4831 52.7215 83.7971 57.0253C87.3478 61.3291 91.9638 64.4374 97.6449 66.3502L98 71.3713C90.4251 80.4571 82.9686 85 75.6304 85ZM20.5942 85C14.913 85 10.0604 82.1308 6.03623 76.3924C2.01208 70.4149 0 63.3615 0 55.2321C0 46.8636 2.95894 37.8973 8.87681 28.3333C14.7947 18.5302 23.0797 9.08579 33.7319 0L41.1884 3.94514L41.8986 7.53163C36.4541 12.7918 32.0749 18.6498 28.7609 25.1055C25.4469 31.3221 23.7899 37.18 23.7899 42.6793C23.7899 47.9395 25.4469 52.7215 28.7609 57.0253C32.3116 61.3291 36.9275 64.4374 42.6087 66.3502L42.9638 71.3713C35.3889 80.4571 27.9324 85 20.5942 85Z" fill="white" fill-opacity="0.2"/>
</svg>
